<svg xmlns="http://www.w3.org/2000/svg" viewBox="0 0 1080 1920" width="1080" height="1920">
  <defs>
    <linearGradient id="bg5" x1="0" y1="0" x2="1" y2="1">
      <stop offset="0" stop-color="#0f1a2e"/><stop offset="1" stop-color="#1a2542"/>
    </linearGradient>
  </defs>
  <rect width="1080" height="1920" fill="url(#bg5)"/>
  <circle cx="-100" cy="2000" r="500" fill="#f59e0b" opacity=".06"/>
  <circle cx="1100" cy="-100" r="400" fill="#ef4444" opacity=".06"/>

  <text x="540" y="180" font-family="-apple-system, Inter, sans-serif" font-size="76" font-weight="800" letter-spacing="-2" fill="#fff" text-anchor="middle">Catch overspend</text>
  <text x="540" y="270" font-family="-apple-system, Inter, sans-serif" font-size="76" font-weight="800" letter-spacing="-2" fill="#7ee5b9" text-anchor="middle">before month-end.</text>
  <text x="540" y="330" font-family="-apple-system, Inter, sans-serif" font-size="32" font-weight="400" fill="#a0adc5" text-anchor="middle">Set monthly budgets · alerts at 80% and 100%</text>

  <g transform="translate(240 420)">
    <rect width="600" height="1280" rx="76" fill="#0a0f1a"/>
    <rect x="22" y="22" width="556" height="1236" rx="56" fill="#f7f8fb"/>

    <text x="300" y="120" font-family="-apple-system, sans-serif" font-size="40" font-weight="700" fill="#0d1424" text-anchor="middle">Budgets</text>
    <text x="300" y="170" font-family="-apple-system, sans-serif" font-size="22" fill="#6b7689" text-anchor="middle" letter-spacing="2">MAY 2026</text>

    <!-- Bud rows -->
    <g transform="translate(40 220)" font-family="-apple-system, sans-serif">
      <!-- Coffee — warn -->
      <rect width="520" height="160" rx="24" fill="#fff" stroke="#e7eaf0" stroke-width="2"/>
      <circle cx="50" cy="50" r="22" fill="#10b981"/>
      <text x="50" y="60" font-size="22" text-anchor="middle">☕</text>
      <text x="90" y="58" font-size="26" font-weight="700" fill="#0d1424">Coffee</text>
      <text x="490" y="58" font-size="26" font-weight="700" fill="#d97706" text-anchor="end">86%</text>
      <rect x="24" y="90" width="472" height="14" rx="7" fill="#eef1f7"/>
      <rect x="24" y="90" width="406" height="14" rx="7" fill="#f59e0b"/>
      <text x="24" y="138" font-size="18" fill="#6b7689">2.36M of 2.75M</text>
      <text x="496" y="138" font-size="18" fill="#6b7689" text-anchor="end">4 days left</text>
    </g>

    <g transform="translate(40 410)" font-family="-apple-system, sans-serif">
      <!-- Food — healthy -->
      <rect width="520" height="160" rx="24" fill="#fff" stroke="#e7eaf0" stroke-width="2"/>
      <circle cx="50" cy="50" r="22" fill="#3b82f6"/>
      <text x="50" y="60" font-size="22" text-anchor="middle">🍜</text>
      <text x="90" y="58" font-size="26" font-weight="700" fill="#0d1424">Food</text>
      <text x="490" y="58" font-size="26" font-weight="700" fill="#6b7689" text-anchor="end">46%</text>
      <rect x="24" y="90" width="472" height="14" rx="7" fill="#eef1f7"/>
      <rect x="24" y="90" width="217" height="14" rx="7" fill="#10b981"/>
      <text x="24" y="138" font-size="18" fill="#6b7689">1.85M of 4M</text>
      <text x="496" y="138" font-size="18" fill="#6b7689" text-anchor="end">4 days left</text>
    </g>

    <g transform="translate(40 600)" font-family="-apple-system, sans-serif">
      <!-- Shopping — over -->
      <rect width="520" height="160" rx="24" fill="#fff" stroke="#e7eaf0" stroke-width="2"/>
      <circle cx="50" cy="50" r="22" fill="#ec4899"/>
      <text x="50" y="60" font-size="22" text-anchor="middle">🛍️</text>
      <text x="90" y="58" font-size="26" font-weight="700" fill="#0d1424">Shopping</text>
      <text x="490" y="58" font-size="26" font-weight="700" fill="#ef4444" text-anchor="end">118%</text>
      <rect x="24" y="90" width="472" height="14" rx="7" fill="#eef1f7"/>
      <rect x="24" y="90" width="472" height="14" rx="7" fill="#ef4444"/>
      <text x="24" y="138" font-size="18" font-weight="600" fill="#ef4444">over by 180k</text>
      <text x="496" y="138" font-size="18" fill="#6b7689" text-anchor="end">4 days left</text>
    </g>

    <!-- Sync upsell card -->
    <g transform="translate(40 800)" font-family="-apple-system, sans-serif">
      <rect width="520" height="380" rx="32" fill="#0f1a2e"/>
      <circle cx="300" cy="-40" r="240" fill="#10b981" opacity=".15"/>
      <text x="40" y="64" font-size="20" font-weight="700" fill="#7ee5b9" letter-spacing="2">FASTSPEND PLUS</text>
      <text x="40" y="120" font-size="36" font-weight="800" fill="#fff" letter-spacing="-1">Sync across</text>
      <text x="40" y="166" font-size="36" font-weight="800" fill="#fff" letter-spacing="-1">all your devices</text>
      <text x="40" y="220" font-size="20" fill="rgba(255,255,255,.7)">Real-time, encrypted, automatic</text>

      <rect x="40" y="250" width="220" height="64" rx="14" fill="rgba(255,255,255,.08)"/>
      <text x="60" y="284" font-size="18" font-weight="600" fill="#fff">Monthly</text>
      <text x="60" y="306" font-size="14" fill="rgba(255,255,255,.55)">$1.99</text>

      <rect x="280" y="250" width="220" height="64" rx="14" fill="rgba(16,185,129,.18)" stroke="#10b981" stroke-width="2"/>
      <text x="300" y="284" font-size="18" font-weight="600" fill="#fff">Yearly</text>
      <text x="300" y="306" font-size="14" fill="#7ee5b9">$14.99 · save 37%</text>

      <text x="260" y="358" font-size="22" font-weight="700" fill="#10b981" text-anchor="middle">Start 7-day free trial →</text>
    </g>
  </g>

  <text x="540" y="1820" font-family="-apple-system, sans-serif" font-size="28" font-weight="600" fill="#7ee5b9" text-anchor="middle">☁ Free forever locally · sync is optional</text>
</svg>
